<?xml version="1.0" encoding="UTF-8" standalone="no"?>
<!-- Created with Inkscape (http://www.inkscape.org/) -->

<svg
   xmlns:dc="http://purl.org/dc/elements/1.1/"
   xmlns:cc="http://creativecommons.org/ns#"
   xmlns:rdf="http://www.w3.org/1999/02/22-rdf-syntax-ns#"
   xmlns:svg="http://www.w3.org/2000/svg"
   xmlns="http://www.w3.org/2000/svg"
   xmlns:sodipodi="http://sodipodi.sourceforge.net/DTD/sodipodi-0.dtd"
   xmlns:inkscape="http://www.inkscape.org/namespaces/inkscape"
   width="104.63088"
   height="78.515701"
   id="svg2"
   version="1.1"
   inkscape:version="0.48.5 r10040"
   sodipodi:docname="loading.svg">
  <defs
     id="defs4" />
  <sodipodi:namedview
     id="base"
     pagecolor="#ffffff"
     bordercolor="#666666"
     borderopacity="1.0"
     inkscape:pageopacity="0.0"
     inkscape:pageshadow="2"
     inkscape:zoom="3.959798"
     inkscape:cx="42.467801"
     inkscape:cy="52.074151"
     inkscape:document-units="mm"
     inkscape:current-layer="layer1"
     showgrid="false"
     inkscape:object-nodes="true"
     inkscape:snap-smooth-nodes="true"
     inkscape:snap-page="true"
     units="mm"
     inkscape:window-width="2048"
     inkscape:window-height="1102"
     inkscape:window-x="-8"
     inkscape:window-y="-8"
     inkscape:window-maximized="1"
     fit-margin-top="0"
     fit-margin-left="0"
     fit-margin-right="0"
     fit-margin-bottom="0" />
  <metadata
     id="metadata7">
    <rdf:RDF>
      <cc:Work
         rdf:about="">
        <dc:format>image/svg+xml</dc:format>
        <dc:type
           rdf:resource="http://purl.org/dc/dcmitype/StillImage" />
        <dc:title />
      </cc:Work>
    </rdf:RDF>
  </metadata>
  <g
     inkscape:label="Layer 1"
     inkscape:groupmode="layer"
     id="layer1"
     transform="translate(-3.1091247,0)">
    <g
       id="g2996"
       transform="translate(-4.2331814,0)">
      <path
         style="font-size:medium;font-style:normal;font-variant:normal;font-weight:normal;font-stretch:normal;text-indent:0;text-align:start;text-decoration:none;line-height:normal;letter-spacing:normal;word-spacing:normal;text-transform:none;direction:ltr;block-progression:tb;writing-mode:lr-tb;text-anchor:start;baseline-shift:baseline;color:#000000;fill:#87de87;fill-opacity:1;fill-rule:nonzero;stroke:none;stroke-width:15;marker:none;visibility:visible;display:inline;overflow:visible;enable-background:accumulate;font-family:Sans;-inkscape-font-specification:Sans"
         d="m 57.666242,0 0,21.902395 -18.96711,10.94288 0,-21.894077 z"
         id="path4191-1"
         inkscape:connector-curvature="0"
         sodipodi:nodetypes="ccccc"
         inkscape:export-filename="C:\Users\ramiro velazco\AppData\Roaming\SketchUp\SketchUp 2014\SketchUp\Plugins\RamTools_Panorama\rtp-16.png"
         inkscape:export-xdpi="8.1083937"
         inkscape:export-ydpi="8.1083937" />
      <path
         style="font-size:medium;font-style:normal;font-variant:normal;font-weight:normal;font-stretch:normal;text-indent:0;text-align:start;text-decoration:none;line-height:normal;letter-spacing:normal;word-spacing:normal;text-transform:none;direction:ltr;block-progression:tb;writing-mode:lr-tb;text-anchor:start;baseline-shift:baseline;color:#000000;fill:#a1e5a1;fill-opacity:1;fill-rule:nonzero;stroke:none;stroke-width:15;marker:none;visibility:visible;display:inline;overflow:visible;enable-background:accumulate;font-family:Sans;-inkscape-font-specification:Sans"
         d="m 61.657562,0 18.958798,10.951198 0,21.894077 -18.958798,-10.94288 z"
         id="path4193-7"
         inkscape:connector-curvature="0"
         sodipodi:nodetypes="ccccc"
         inkscape:export-filename="C:\Users\ramiro velazco\AppData\Roaming\SketchUp\SketchUp 2014\SketchUp\Plugins\RamTools_Panorama\rtp-16.png"
         inkscape:export-xdpi="8.1083937"
         inkscape:export-ydpi="8.1083937" />
      <path
         style="font-size:medium;font-style:normal;font-variant:normal;font-weight:normal;font-stretch:normal;text-indent:0;text-align:start;text-decoration:none;line-height:normal;letter-spacing:normal;word-spacing:normal;text-transform:none;direction:ltr;block-progression:tb;writing-mode:lr-tb;text-anchor:start;baseline-shift:baseline;color:#000000;fill:#00d400;fill-opacity:1;fill-rule:nonzero;stroke:none;stroke-width:15;marker:none;visibility:visible;display:inline;overflow:visible;enable-background:accumulate;font-family:Sans;-inkscape-font-specification:Sans"
         d="M 59.6619,25.353228 78.62069,36.304426 59.6619,47.255623 40.694799,36.304426 z"
         id="path4195-4"
         inkscape:connector-curvature="0"
         sodipodi:nodetypes="ccccc"
         inkscape:export-filename="C:\Users\ramiro velazco\AppData\Roaming\SketchUp\SketchUp 2014\SketchUp\Plugins\RamTools_Panorama\rtp-16.png"
         inkscape:export-xdpi="8.1083937"
         inkscape:export-ydpi="8.1083937" />
    </g>
    <g
       style="font-size:126.07003021px;font-style:normal;font-variant:normal;font-weight:normal;font-stretch:normal;text-align:start;line-height:125%;letter-spacing:0px;word-spacing:0px;writing-mode:lr-tb;text-anchor:start;color:#000000;fill:#003688;fill-opacity:1;fill-rule:nonzero;stroke:none;stroke-width:4.76380301;marker:none;visibility:visible;display:inline;overflow:visible;enable-background:accumulate;font-family:Century Gothic;-inkscape-font-specification:Century Gothic"
       id="text3097"
       transform="matrix(0.21771772,0,0,0.21771772,-48.177574,129.62466)">
      <path
         d="m 235.56511,-351.52357 9.11053,0 0,81.8101 34.78006,0 0,8.74118 -43.89059,0 z"
         style="color:#000000;fill:#003688;stroke:none;marker:none;visibility:visible;display:inline;overflow:visible;enable-background:accumulate"
         id="path3102"
         inkscape:connector-curvature="0" />
      <path
         d="m 324.2081,-329.67061 c 10.30059,7e-5 18.83658,3.73456 25.60798,11.20349 6.15569,6.81243 9.23357,14.87647 9.23364,24.19215 -7e-5,9.35679 -3.25237,17.53368 -9.75688,24.53072 -6.50465,6.99705 -14.86622,10.49557 -25.08474,10.49557 -10.25963,0 -18.64172,-3.49852 -25.14629,-10.49557 -6.5046,-6.99704 -9.75689,-15.17393 -9.75689,-24.53072 0,-9.27464 3.07788,-17.31816 9.23365,-24.13059 6.77132,-7.50997 15.32782,-11.26498 25.66953,-11.26505 z m 0,8.4334 c -7.14072,6e-5 -13.27596,2.64703 -18.40573,7.94093 -5.12982,5.29401 -7.69472,11.69599 -7.6947,19.20598 -2e-5,4.84257 1.16957,9.35679 3.50878,13.54268 2.33917,4.18594 5.49913,7.41771 9.47988,9.69533 3.98069,2.27764 8.35128,3.41646 13.11177,3.41645 4.76041,10e-6 9.131,-1.13881 13.11178,-3.41645 3.98067,-2.27762 7.14062,-5.50939 9.47987,-9.69533 2.33913,-4.18589 3.50872,-8.70011 3.50879,-13.54268 -7e-5,-7.50999 -2.57523,-13.91197 -7.72548,-19.20598 -5.15038,-5.2939 -11.27536,-7.94087 -18.37496,-7.94093 z"
         style="color:#000000;fill:#003688;stroke:none;marker:none;visibility:visible;display:inline;overflow:visible;enable-background:accumulate"
         id="path3104"
         inkscape:connector-curvature="0" />
      <path
         d="m 441.72163,-327.94699 0,66.9747 -8.49495,0 0,-11.51128 c -3.61145,4.39112 -7.66399,7.69471 -12.15763,9.91078 -4.49376,2.21608 -9.40811,3.32411 -14.74306,3.32411 -9.4799,0 -17.57472,-3.43696 -24.28448,-10.3109 -6.7098,-6.87392 -10.06468,-15.23549 -10.06468,-25.08473 0,-9.64399 3.38566,-17.8927 10.15701,-24.74617 6.77132,-6.85335 14.91744,-10.28006 24.43838,-10.28013 5.4991,7e-5 10.47501,1.16967 14.92773,3.50879 4.45261,2.33925 8.36151,5.84803 11.72673,10.52635 l 0,-12.31152 z m -34.47227,6.58666 c -4.80154,6e-5 -9.23368,1.17992 -13.29645,3.53957 -4.06283,2.35976 -7.2946,5.67361 -9.69533,9.94155 -2.40076,4.26804 -3.60114,8.78226 -3.60112,13.54268 -2e-5,4.71945 1.21062,9.23367 3.6319,13.54268 2.42125,4.30905 5.67354,7.66394 9.75688,10.06468 4.0833,2.40075 8.46414,3.60112 13.14256,3.60112 4.71937,0 9.19255,-1.19011 13.41956,-3.57035 4.2269,-2.38021 7.47919,-5.60173 9.75689,-9.66454 2.27756,-4.06278 3.41638,-8.63856 3.41645,-13.72736 -7e-5,-7.75622 -2.55471,-14.24028 -7.66393,-19.45221 -5.10934,-5.21182 -11.39847,-7.81776 -18.86741,-7.81782 z"
         style="color:#000000;fill:#003688;stroke:none;marker:none;visibility:visible;display:inline;overflow:visible;enable-background:accumulate"
         id="path3106"
         inkscape:connector-curvature="0" />
      <path
         d="m 528.02543,-353.8012 0,92.82891 -8.49496,0 0,-11.51128 c -3.61144,4.39112 -7.66398,7.69471 -12.15763,9.91078 -4.49376,2.21608 -9.4081,3.32411 -14.74305,3.32411 -9.47991,0 -17.57473,-3.43696 -24.28449,-10.3109 -6.70979,-6.87392 -10.06468,-15.23549 -10.06467,-25.08473 -10e-6,-9.64399 3.38566,-17.8927 10.15701,-24.74617 6.77131,-6.85335 14.91743,-10.28006 24.43838,-10.28013 5.4991,7e-5 10.475,1.16967 14.92772,3.50879 4.45261,2.33925 8.36152,5.84803 11.72673,10.52635 l 0,-38.16573 z m -34.47228,32.44087 c -4.80153,6e-5 -9.23368,1.17992 -13.29645,3.53957 -4.06283,2.35976 -7.2946,5.67361 -9.69532,9.94155 -2.40077,4.26804 -3.60114,8.78226 -3.60113,13.54268 -10e-6,4.71945 1.21062,9.23367 3.6319,13.54268 2.42125,4.30905 5.67354,7.66394 9.75689,10.06468 4.08329,2.40075 8.46414,3.60112 13.14255,3.60112 4.71938,0 9.19256,-1.19011 13.41957,-3.57035 4.2269,-2.38021 7.47919,-5.60173 9.75688,-9.66454 2.27757,-4.06278 3.41638,-8.63856 3.41645,-13.72736 -7e-5,-7.75622 -2.55471,-14.24028 -7.66392,-19.45221 -5.10934,-5.21182 -11.39848,-7.81776 -18.86742,-7.81782 z"
         style="color:#000000;fill:#003688;stroke:none;marker:none;visibility:visible;display:inline;overflow:visible;enable-background:accumulate"
         id="path3108"
         inkscape:connector-curvature="0" />
      <path
         d="m 550.61709,-355.52481 c 1.96983,9e-5 3.6524,0.69774 5.04772,2.09296 1.39529,1.39539 2.09294,3.07797 2.09296,5.04772 -2e-5,1.92889 -0.69767,3.59095 -2.09296,4.98617 -1.39532,1.39539 -3.07789,2.09304 -5.04772,2.09296 -1.92882,8e-5 -3.59087,-0.69757 -4.98617,-2.09296 -1.39531,-1.39522 -2.09297,-3.05728 -2.09296,-4.98617 -10e-6,-1.96975 0.69765,-3.65233 2.09296,-5.04772 1.3953,-1.39522 3.05735,-2.09287 4.98617,-2.09296 z m -4.30904,27.57782 8.67963,0 0,66.9747 -8.67963,0 z"
         style="color:#000000;fill:#003688;stroke:none;marker:none;visibility:visible;display:inline;overflow:visible;enable-background:accumulate"
         id="path3110"
         inkscape:connector-curvature="0" />
      <path
         d="m 572.96249,-327.94699 8.61807,0 0,12.00373 c 3.4472,-4.59624 7.26377,-8.0332 11.44972,-10.3109 4.18588,-2.27756 8.74114,-3.41638 13.66579,-3.41645 5.00664,7e-5 9.44904,1.27226 13.32723,3.81658 3.87807,2.54444 6.74049,5.97115 8.58729,10.28012 1.84666,4.30908 2.77002,11.01886 2.77009,20.12935 l 0,34.47227 -8.55651,0 0,-31.94841 c -6e-5,-7.71518 -0.32837,-12.8655 -0.98492,-15.45097 -1.02602,-4.43209 -2.95482,-7.76646 -5.78642,-10.00311 -2.8317,-2.23654 -6.52516,-3.35483 -11.08037,-3.35489 -5.21192,6e-5 -9.88004,1.72367 -14.00437,5.17084 -4.12438,3.44728 -6.84317,7.71527 -8.15638,12.80399 -0.82079,3.32415 -1.23117,9.39783 -1.23115,18.22105 l 0,24.5615 -8.61807,0 z"
         style="color:#000000;fill:#003688;stroke:none;marker:none;visibility:visible;display:inline;overflow:visible;enable-background:accumulate"
         id="path3112"
         inkscape:connector-curvature="0" />
      <path
         d="m 707.46593,-327.94699 8.67963,0 0,53.37046 c -8e-5,9.39781 -0.82084,16.27173 -2.46231,20.62181 -2.25718,6.15575 -6.17635,10.89568 -11.7575,14.21981 -5.58129,3.32409 -12.29106,4.98614 -20.12935,4.98617 -5.74541,-3e-5 -10.90599,-0.81053 -15.48174,-2.43153 -4.57581,-1.62104 -8.30004,-3.79607 -11.17271,-6.5251 -2.87271,-2.72907 -5.51968,-6.72006 -7.94094,-11.97296 l 9.35676,0 c 2.54436,4.43214 5.82743,7.71521 9.84922,9.84922 4.02174,2.13398 9.0079,3.20098 14.95851,3.20099 5.86844,-1e-5 10.82383,-1.09779 14.86617,-3.29333 4.04222,-2.19557 6.92517,-4.9554 8.64884,-8.2795 1.72355,-3.32412 2.58536,-8.67962 2.58542,-16.06654 l 0,-3.44723 c -3.2421,4.10385 -7.2023,7.25355 -11.88062,9.4491 -4.67843,2.19555 -9.64407,3.29333 -14.89695,3.29333 -6.15579,0 -11.94221,-1.52868 -17.35925,-4.58604 -5.41709,-3.05736 -9.603,-7.17146 -12.55776,-12.34231 -2.95477,-5.17082 -4.43215,-10.85463 -4.43215,-17.05146 0,-6.19676 1.53894,-11.97292 4.61683,-17.32848 3.07786,-5.35545 7.3356,-9.59267 12.77321,-12.71165 5.43756,-3.11885 11.17267,-4.67831 17.20535,-4.67838 5.00665,7e-5 9.67476,1.03629 14.00436,3.10866 4.3295,2.07251 8.50515,5.48895 12.52698,10.24935 z m -25.4233,6.58666 c -4.88361,6e-5 -9.41835,1.17992 -13.60424,3.53957 -4.18594,2.35976 -7.46901,5.62231 -9.84922,9.78766 -2.38024,4.16544 -3.57035,8.66941 -3.57034,13.5119 -10e-6,7.3459 2.46229,13.41958 7.38692,18.22106 4.92458,4.80151 11.30605,7.20225 19.14442,7.20224 7.92037,10e-6 14.29157,-2.38022 19.11364,-7.14068 4.82195,-4.76044 7.23296,-11.01879 7.23303,-18.77508 -7e-5,-5.04769 -1.10811,-9.55165 -3.32412,-13.5119 -2.21613,-3.96016 -5.35557,-7.08933 -9.41831,-9.38754 -4.06286,-2.29809 -8.43345,-3.44717 -13.11178,-3.44723 z"
         style="color:#000000;fill:#003688;stroke:none;marker:none;visibility:visible;display:inline;overflow:visible;enable-background:accumulate"
         id="path3114"
         inkscape:connector-curvature="0" />
    </g>
  </g>
</svg>
